<?xml version="1.0" encoding="UTF-8" standalone="no"?>
<svg
   xmlns:dc="http://purl.org/dc/elements/1.1/"
   xmlns:cc="http://creativecommons.org/ns#"
   xmlns:rdf="http://www.w3.org/1999/02/22-rdf-syntax-ns#"
   xmlns:svg="http://www.w3.org/2000/svg"
   xmlns="http://www.w3.org/2000/svg"
   xmlns:xlink="http://www.w3.org/1999/xlink"
   id="svg25"
   version="1.1"
   class="css-1j8o68f"
   >
  <defs
     id="SvgjsDefs2101">
    <linearGradient
       id="SvgjsLinearGradient2108">
      <stop
         offset="0"
         stop-color="#00ff8f"
         id="SvgjsStop2109" />
      <stop
         offset="1"
         stop-color="#00a1ff"
         id="SvgjsStop2110" />
    </linearGradient>
    <linearGradient
       id="SvgjsLinearGradient2111">
      <stop
         offset="0"
         stop-color="#00ff8f"
         id="SvgjsStop2112" />
      <stop
         offset="1"
         stop-color="#00a1ff"
         id="SvgjsStop2113" />
    </linearGradient>
    <linearGradient
       id="SvgjsLinearGradient2114">
      <stop
         offset="0"
         stop-color="#00ff8f"
         id="SvgjsStop2115" />
      <stop
         offset="1"
         stop-color="#00a1ff"
         id="SvgjsStop2116" />
    </linearGradient>
    <linearGradient
       gradientUnits="userSpaceOnUse"
       y2="4.6530754"
       x2="95.605585"
       y1="4.6530754"
       x1="11.850227"
       gradientTransform="scale(0.93061509,1.0745581)"
       id="linearGradient31"
       xlink:href="#SvgjsLinearGradient2108" />
    <linearGradient
       gradientUnits="userSpaceOnUse"
       y2="11.632524"
       x2="88.566437"
       y1="11.632524"
       x1="17.975391"
       gradientTransform="scale(0.93856095,1.0654609)"
       id="linearGradient33"
       xlink:href="#SvgjsLinearGradient2108" />
    <linearGradient
       gradientUnits="userSpaceOnUse"
       y2="4.6530754"
       x2="95.605585"
       y1="4.6530754"
       x1="11.850227"
       gradientTransform="scale(0.93061509,1.0745581)"
       id="linearGradient35"
       xlink:href="#SvgjsLinearGradient2108" />
    <linearGradient
       gradientUnits="userSpaceOnUse"
       y2="4.6530754"
       x2="95.605585"
       y1="4.6530754"
       x1="11.850227"
       gradientTransform="scale(0.93061509,1.0745581)"
       id="linearGradient37"
       xlink:href="#SvgjsLinearGradient2108" />
    <linearGradient
       gradientUnits="userSpaceOnUse"
       y2="12.780356"
       x2="27.85471"
       y1="12.780356"
       x1="0.42146799"
       gradientTransform="scale(2.0106628,0.49734844)"
       id="linearGradient39"
       xlink:href="#SvgjsLinearGradient2111" />
    <linearGradient
       gradientUnits="userSpaceOnUse"
       y2="12.780356"
       x2="27.85471"
       y1="12.780356"
       x1="0.42146799"
       gradientTransform="scale(2.0106628,0.49734844)"
       id="linearGradient41"
       xlink:href="#SvgjsLinearGradient2111" />
    <linearGradient
       gradientUnits="userSpaceOnUse"
       y2="9.39769"
       x2="23.887477"
       y1="9.39769"
       x1="3.7114095"
       gradientTransform="scale(1.4786798,0.67627896)"
       id="linearGradient43"
       xlink:href="#SvgjsLinearGradient2114" />
    <linearGradient
       gradientUnits="userSpaceOnUse"
       y2="9.39769"
       x2="23.887477"
       y1="9.39769"
       x1="3.7114095"
       gradientTransform="scale(1.4786798,0.67627896)"
       id="linearGradient45"
       xlink:href="#SvgjsLinearGradient2114" />
  </defs>
  <g
     style="fill:#ddd"
     transform="matrix(1.1546751,0,0,1.1546751,-12.733757,-5.7733757)"
     featurekey="symbolFeature-0"
     id="SvgjsG2102">
    <g
       style="fill:#ddd"
       id="g16">
      <path
         style="fill:#ddd"
         id="path12"
         d="M 87.579,26.695 51.387,5.803 49.994,5 48.601,5.803 12.421,26.695 11.028,27.5 V 29.108 70.892 72.5 L 12.421,73.305 48.602,94.197 49.994,95 51.387,94.197 87.579,73.305 88.972,72.5 V 70.892 29.108 27.5 Z M 86.186,70.892 49.994,91.785 13.813,70.892 V 29.108 L 49.994,8.215 86.185,29.108 v 41.784 z" />
      <path
         style="fill:#ddd"
         id="path14"
         d="m 45.911,15.713 -23.58,13.615 c -0.405,-0.131 -0.832,-0.22 -1.281,-0.22 -2.307,0 -4.179,1.872 -4.179,4.178 0,1.232 0.544,2.329 1.394,3.093 v 27.089 c -0.85,0.765 -1.394,1.861 -1.394,3.093 0,2.307 1.872,4.178 4.179,4.178 0.387,0 0.754,-0.07 1.11,-0.168 l 23.751,13.716 c 0.397,1.894 2.075,3.319 4.089,3.319 2.016,0 3.696,-1.428 4.091,-3.327 L 77.666,70.672 c 0.405,0.131 0.832,0.22 1.281,0.22 2.307,0 4.178,-1.872 4.178,-4.178 0,-1.232 -0.544,-2.329 -1.393,-3.093 V 36.379 c 0.849,-0.765 1.393,-1.861 1.393,-3.093 0,-2.307 -1.871,-4.178 -4.178,-4.178 -0.449,0 -0.876,0.089 -1.281,0.22 L 54.091,15.721 C 53.696,13.823 52.016,12.394 50,12.394 c -2.014,0 -3.691,1.425 -4.089,3.319 z M 75.343,68.795 53.602,81.344 c -0.128,-0.22 -0.274,-0.424 -0.44,-0.617 L 63.65,62.557 c 0.267,0.054 0.541,0.084 0.824,0.084 1.069,0 2.035,-0.414 2.775,-1.075 l 7.595,4.385 c -0.046,0.248 -0.076,0.5 -0.076,0.762 0.001,0.763 0.221,1.467 0.575,2.082 z m -50.177,-2.851 7.663,-4.423 c 0.724,0.607 1.646,0.988 2.666,0.988 0.264,0 0.52,-0.03 0.772,-0.079 L 46.83,80.732 c -0.163,0.193 -0.307,0.397 -0.435,0.617 L 24.589,68.76 c 0.4,-0.642 0.64,-1.39 0.64,-2.198 0,-0.213 -0.034,-0.414 -0.063,-0.618 z m 23.436,-45.452 0.003,8.871 c -1.181,0.422 -2.108,1.35 -2.527,2.53 H 24.973 C 24.886,31.651 24.78,31.422 24.655,31.205 L 46.396,18.651 c 0.492,0.851 1.267,1.507 2.206,1.841 z M 73.751,34.679 52.698,46.833 c -0.384,-0.327 -0.821,-0.585 -1.306,-0.756 l -0.003,-8.868 c 1.184,-0.419 2.111,-1.349 2.533,-2.53 z m -12.48,26.436 -9.884,17.117 0.006,-24.309 c 0.484,-0.171 0.922,-0.43 1.306,-0.756 l 7.688,4.437 c -0.057,0.277 -0.09,0.566 -0.09,0.859 -10e-4,1.012 0.375,1.929 0.974,2.652 z M 39.6,57.611 47.301,53.166 c 0.384,0.327 0.822,0.582 1.307,0.756 L 48.602,78.231 38.667,61.02 c 0.617,-0.729 1.007,-1.659 1.007,-2.69 0,-0.245 -0.033,-0.484 -0.074,-0.719 z m 6.477,-22.932 c 0.419,1.181 1.347,2.108 2.527,2.53 l 0.003,8.868 c -0.484,0.174 -0.923,0.43 -1.307,0.756 L 26.246,34.679 Z m -0.18,14.559 c -0.046,0.248 -0.076,0.5 -0.076,0.762 0,0.262 0.03,0.514 0.076,0.762 l -7.671,4.429 c -0.735,-0.639 -1.682,-1.039 -2.731,-1.039 -0.256,0 -0.506,0.03 -0.751,0.076 L 24.852,37.09 Z m 19.277,5.117 c -0.229,-0.038 -0.46,-0.071 -0.699,-0.071 -0.998,0 -1.904,0.364 -2.622,0.952 l -7.751,-4.475 c 0.047,-0.248 0.076,-0.5 0.076,-0.762 0,-0.262 -0.029,-0.514 -0.076,-0.762 L 75.144,37.088 Z m 9.85,-22.461 H 53.923 c -0.422,-1.184 -1.35,-2.111 -2.533,-2.53 l -0.003,-8.868 c 0.941,-0.332 1.72,-0.987 2.215,-1.839 l 21.741,12.549 c -0.125,0.219 -0.232,0.445 -0.319,0.688 z M 21.05,37.465 c 0.261,0 0.515,-0.03 0.762,-0.076 l 10.525,18.234 c -0.629,0.731 -1.021,1.667 -1.021,2.707 0,0.275 0.03,0.544 0.082,0.803 l -7.541,4.353 C 23.114,62.809 22.134,62.384 21.049,62.384 V 37.465 Z m 57.897,25.07 c -1.034,0 -1.97,0.389 -2.699,1.012 l -7.663,-4.423 c 0.035,-0.218 0.068,-0.435 0.068,-0.661 0,-1.055 -0.405,-2.01 -1.053,-2.745 l 10.585,-18.33 c 0.247,0.046 0.5,0.076 0.762,0.076 z" />
    </g>
  </g>
</svg>
